#!OML:ASF H:\Terrain\Patient Classification 1\Walking\steve\steve.ASF
:FULLY-SPECIFIED
:DEGREES
364
root 7.82852 16.1209 11.5063 9.08135 -7.1531 -5.72772
lowerback -2.74908 5.94171 3.10308
upperback -1.85047 7.85469 0.352535
thorax -0.00820575 3.90908 -1.12134
lowerneck -10.5219 -1.89532 -2.46371
upperneck 16.8964 -2.70845 3.11713
head 6.97187 -1.18311 1.16865
rclavicle 5.21561e-014 -9.34288e-015
rhumerus -10.806 -0.50576 -82.0808
rradius 39.961
rwrist -9.27679
rhand -24.1239 -37.1026
rfingers 7.12502
rthumb 2.35771 -67.0693
lclavicle 5.21561e-014 -9.34288e-015
lhumerus -58.1056 14.3768 64.876
lradius 18.0561
lwrist 0.0430466
lhand -16.0544 -11.5304
lfingers 7.12502
lthumb 10.1477 18.2049
rfemur 9.67486 3.72814 26.62
rtibia 20.4341
rfoot -5.23082 15.8803
rtoes -5.01432
lfemur -41.4385 2.45465 -12.9236
ltibia 28.9277
lfoot -6.19088 7.13887
ltoes -5.65479
365
root 7.84238 16.1199 11.683 9.14688 -6.78296 -5.37797
lowerback -2.8164 5.87077 2.53021
upperback -1.91779 7.77237 0.188656
thorax -0.0953421 3.87027 -0.979816
lowerneck -10.4806 -1.86916 -2.40695
upperneck 16.8461 -2.68999 3.16239
head 6.9476 -1.1673 1.17585
rclavicle 6.1499e-014 -2.78299e-015
rhumerus -11.9175 -1.07351 -82.1701
rradius 40.1746
rwrist -9.04461
rhand -19.5336 -37.8784
rfingers 7.12502
rthumb 6.79005 -67.7495
lclavicle 6.1499e-014 -2.78299e-015
lhumerus -57.845 15.8361 62.8026
lradius 17.4019
lwrist -2.15115
lhand -16.6987 -11.8442
lfingers 7.12502
lthumb 9.52608 17.9204
rfemur 9.37088 3.84236 26.438
rtibia 21.8436
rfoot -5.14626 14.926
rtoes -12.172
lfemur -41.7411 2.42266 -13.6009
ltibia 30.1064
lfoot -6.1535 6.29874
ltoes -6.01459
366
root 7.85653 16.1712 11.8833 9.11635 -6.54732 -5.07556
lowerback -2.98352 5.87947 2.08424
upperback -1.91856 7.78966 0.0302581
thorax -0.0390669 3.88234 -0.88065
lowerneck -10.8936 -1.80979 -2.30332
upperneck 17.3019 -2.62867 3.14746
head 7.16458 -1.12539 1.15729
rclavicle 3.39176e-014 -8.34896e-015
rhumerus -12.871 -1.48624 -82.1555
rradius 40.0198
rwrist -9.17072
rhand -12.7978 -39.7929
rfingers 7.12502
rthumb 13.2881 -69.3492
lclavicle 3.39176e-014 -8.34896e-015
lhumerus -57.4687 16.4929 61.8704
lradius 17.2928
lwrist -3.36567
lhand -15.7734 -9.78525
lfingers 7.12502
lthumb 10.4188 19.9366
rfemur 8.63074 4.72286 26.2203
rtibia 23.7632
rfoot -2.76128 13.8109
rtoes -3.84978
lfemur -41.4778 2.27001 -14.1497
ltibia 30.9339
lfoot -6.32375 5.43127
ltoes -3.88418
367
root 7.86483 16.2217 12.0591 9.16933 -6.26838 -5.03695
lowerback -2.96474 5.84701 1.77668
upperback -1.96232 7.75509 -0.0181386
thorax -0.12892 3.86637 -0.770967
lowerneck -10.8232 -2.03559 -2.51995
upperneck 17.2552 -2.96389 3.49623
head 7.15548 -1.27026 1.2751
rclavicle 6.06293e-015 6.75868e-015
rhumerus -13.8817 -1.84563 -82.215
rradius 39.8351
rwrist -9.39207
rhand -16.5119 -38.1985
rfingers 7.12502
rthumb 9.70628 -67.9549
lclavicle 6.06293e-015 6.75868e-015
lhumerus -56.8227 16.8359 61.6047
lradius 17.1353
lwrist -3.9371
lhand -15.0836 -7.84935
lfingers 7.12502
lthumb 11.0842 21.8379
rfemur 7.6044 5.7348 26.4637
rtibia 26.0513
rfoot -0.96884 11.8617
rtoes 0.838967
lfemur -41.28 2.29355 -14.4149
ltibia 31.4187
lfoot -5.52252 5.02453
ltoes -5.22011
368
root 7.87691 16.2559 12.2263 9.28573 -6.03484 -4.94196
lowerback -3.0092 5.79688 1.49094
upperback -2.02111 7.69494 -0.107076
thorax -0.191025 3.83763 -0.708406
lowerneck -10.9322 -2.18914 -2.7306
upperneck 17.371 -3.1711 3.67643
head 7.22552 -1.36521 1.34806
rclavicle -1.51325e-014 2.38542e-015
rhumerus -15.2228 -2.13153 -82.3232
rradius 40.141
rwrist -9.60724
rhand -17.6459 -37.6064
rfingers 7.12502
rthumb 8.6121 -67.4107
lclavicle -1.51325e-014 2.38542e-015
lhumerus -56.4175 17.9973 60.2469
lradius 16.5047
lwrist -5.5661
lhand -15.2787 -8.77426
lfingers 7.12502
lthumb 10.8959 20.923
rfemur 6.51078 5.9393 26.5146
rtibia 28.3427
rfoot 0.368762 10.2392
rtoes -2.42931
lfemur -41.2086 2.41994 -14.793
ltibia 31.86
lfoot -5.10424 4.66531
ltoes -7.39364
369
root 7.89468 16.2841 12.4099 9.25878 -6.02319 -4.61011
lowerback -3.16829 5.84492 1.16758
upperback -2.01787 7.76432 -0.359509
thorax -0.10522 3.87435 -0.768241
lowerneck -10.7813 -2.21854 -2.65008
upperneck 17.3313 -3.22048 3.63919
head 7.18569 -1.38878 1.31915
rclavicle -4.7435e-014 -1.98785e-014
rhumerus -16.4098 -2.40693 -82.4431
rradius 40.1953
rwrist -9.99413
rhand -17.913 -37.2715
rfingers 7.12502
rthumb 8.35432 -67.0863
lclavicle -4.7435e-014 -1.98785e-014
lhumerus -56.251 19.0506 58.6515
lradius 16.1015
lwrist -7.4132
lhand -15.2259 -11.0969
lfingers 7.12502
lthumb 10.9469 18.5977
rfemur 5.59181 6.14314 26.1628
rtibia 30.5516
rfoot 1.7293 8.99453
rtoes -6.78885
lfemur -40.7993 2.53049 -15.4534
ltibia 32.3777
lfoot -5.50801 4.30104
ltoes -8.4203
370
root 7.92002 16.2972 12.6021 9.12121 -5.92281 -4.20553
lowerback -3.2628 5.90003 0.905778
upperback -2.01976 7.84373 -0.62398
thorax -0.0506983 3.91518 -0.880282
lowerneck -10.2432 -2.16208 -2.70322
upperneck 17.0363 -3.18252 3.90532
head 6.99871 -1.35901 1.42214
rclavicle 7.43455e-014 -3.97569e-015
rhumerus -17.5929 -2.64714 -82.5335
rradius 40.0101
rwrist -10.4507
rhand -18.4787 -37.0467
rfingers 7.12502
rthumb 7.80831 -66.8825
lclavicle 7.43455e-014 -3.97569e-015
lhumerus -55.5973 19.0161 58.6108
lradius 16.1261
lwrist -7.25259
lhand -15.1482 -10.9024
lfingers 7.12502
lthumb 11.0218 18.7882
rfemur 4.98881 6.38395 25.7299
rtibia 32.8099
rfoot 3.38462 7.79474
rtoes -4.41837
lfemur -40.1496 2.25399 -16.0778
ltibia 32.771
lfoot -5.67255 4.07912
ltoes -4.80346
371
root 7.94748 16.3013 12.7827 9.06836 -5.76849 -3.41682
lowerback -3.3676 5.86745 0.20568
upperback -2.03829 7.81906 -0.946473
thorax -0.0598055 3.90657 -0.819653
lowerneck -9.83266 -2.08786 -2.72159
upperneck 16.6932 -3.10852 4.10048
head 6.81642 -1.31567 1.49769
rclavicle -8.77137e-014 -2.78299e-015
rhumerus -19.0099 -2.99073 -82.7549
rradius 40.0666
rwrist -10.8508
rhand -18.303 -37.2422
rfingers 7.12502
rthumb 7.97788 -67.0716
lclavicle -8.77137e-014 -2.78299e-015
lhumerus -54.8985 19.4471 58.2521
lradius 15.8597
lwrist -7.28742
lhand -15.5047 -11.1726
lfingers 7.12502
lthumb 10.6779 18.536
rfemur 4.28511 6.36042 24.8165
rtibia 35.1116
rfoot 5.08896 6.52412
rtoes -0.0640184
lfemur -39.6255 1.7724 -17.0858
ltibia 33.0395
lfoot -5.76669 3.9189
ltoes 0.60315
372
root 7.96492 16.3207 12.9465 9.0528 -5.67944 -2.66121
lowerback -3.5083 5.75092 -0.657175
upperback -1.90221 7.69051 -1.17267
thorax 0.0743364 3.84694 -0.563785
lowerneck -10.2205 -2.11771 -2.72852
upperneck 16.7864 -3.14053 4.07656
head 6.91575 -1.3282 1.48522
rclavicle -1.51623e-013 -7.55382e-015
rhumerus -20.0397 -3.10147 -83.0846
rradius 39.9717
rwrist -11.3477
rhand -16.9025 -41.4032
rfingers 7.12502
rthumb 9.32942 -71.1768
lclavicle -1.51623e-013 -7.55382e-015
lhumerus -54.1977 20.2815 57.9631
lradius 16.076
lwrist -7.21389
lhand -16.0505 -11.0999
lfingers 7.12502
lthumb 10.1514 18.6352
rfemur 3.28886 6.42664 23.9964
rtibia 37.4385
rfoot 6.56647 5.18447
rtoes 0.318338
lfemur -39.2117 1.59176 -18.0915
ltibia 33.3215
lfoot -6.11735 3.57344
ltoes 4.48104
373
root 7.98919 16.3486 13.1139 8.91148 -5.53582 -2.64795
lowerback -3.39315 5.65328 -0.631799
upperback -1.79989 7.55956 -1.18149
thorax 0.119257 3.78103 -0.596594
lowerneck -10.7723 -2.14601 -2.6716
upperneck 17.3301 -3.15343 3.83781
head 7.18487 -1.34039 1.39381
rclavicle -6.48535e-014 -1.86858e-014
rhumerus -21.0608 -2.87766 -83.3143
rradius 39.7269
rwrist -11.7486
rhand -17.0954 -42.2268
rfingers 7.12502
rthumb 9.14325 -72.0086
lclavicle -6.48535e-014 -1.86858e-014
lhumerus -53.5879 20.8461 58.0413
lradius 16.2342
lwrist -7.09333
lhand -16.769 -11.0564
lfingers 7.12502
lthumb 9.4582 18.7113
rfemur 2.3161 6.42223 23.9577
rtibia 39.8789
rfoot 8.20899 4.09203
rtoes -0.41396
lfemur -38.5376 1.6212 -18.3366
ltibia 33.4951
lfoot -6.54364 3.17012
ltoes 6.12756
374
root 8.01968 16.3723 13.2841 8.69391 -5.39314 -2.85444
lowerback -2.99832 5.64392 -0.232731
upperback -1.89964 7.53218 -1.20446
thorax -0.148369 3.7651 -0.885097
lowerneck -10.7491 -2.10646 -2.43649
upperneck 17.763 -3.11181 3.60675
head 7.31265 -1.32194 1.28469
rclavicle -2.50966e-014 5.96354e-015
rhumerus -22.4196 -3.03939 -83.4794
rradius 39.4499
rwrist -11.819
rhand -17.4186 -41.6287
rfingers 7.12502
rthumb 8.83139 -71.4239
lclavicle -2.50966e-014 5.96354e-015
lhumerus -53.1055 20.9784 58.1401
lradius 16.1332
lwrist -7.37498
lhand -17.0137 -10.845
lfingers 7.12502
lthumb 9.22209 18.9333
rfemur 1.35514 6.23636 24.0481
rtibia 42.4004
rfoot 9.92716 3.37543
rtoes -1.29313
lfemur -37.5754 1.78691 -18.4632
ltibia 33.4663
lfoot -6.79827 2.80674
ltoes 4.53585
375
root 8.03922 16.402 13.4458 8.55882 -5.40545 -2.55662
lowerback -2.77949 5.65245 -0.502835
upperback -1.95164 7.54694 -1.33171
thorax -0.34066 3.7739 -0.895142
lowerneck -10.6389 -2.11654 -2.35757
upperneck 17.8493 -3.1327 3.54662
head 7.31962 -1.33242 1.25109
rclavicle 3.08116e-015 1.43125e-014
rhumerus -23.3596 -3.46331 -83.6121
rradius 38.8779
rwrist -11.6919
rhand -16.982 -41.6685
rfingers 7.12502
rthumb 9.25271 -71.4455
lclavicle 3.08116e-015 1.43125e-014
lhumerus -52.5219 21.4618 57.9671
lradius 15.9814
lwrist -7.93513
lhand -16.9452 -11.1092
lfingers 7.12502
lthumb 9.28824 18.6662
rfemur 0.11006 6.30515 23.6834
rtibia 44.8841
rfoot 11.7714 2.25708
rtoes -2.67947
lfemur -36.7084 2.06468 -19.1358
ltibia 33.3492
lfoot -6.88241 2.42433
ltoes 2.66995
